<svg width="800px" height="800px" viewBox="0 0 113 113" fill="none" xmlns="http://www.w3.org/2000/svg">
<path fill-rule="evenodd" clip-rule="evenodd" d="M94 67C96.3869 67 98.6761 67.9482 100.364 69.636C102.052 71.3239 103 73.6131 103 76V94C103 96.387 102.052 98.6761 100.364 100.364C98.6761 102.052 96.3869 103 94 103H76C73.6131 103 71.3239 102.052 69.636 100.364C67.9482 98.6761 67 96.387 67 94V76C67 73.6131 67.9482 71.3239 69.636 69.636C71.3239 67.9482 73.6131 67 76 67H94Z" fill="#1F2937"/>
<path fill-rule="evenodd" clip-rule="evenodd" d="M38 67C40.3869 67 42.6761 67.9482 44.3639 69.636C46.0518 71.3239 47 73.6131 47 76V94C47 96.387 46.0518 98.6761 44.3639 100.364C42.6761 102.052 40.3869 103 38 103H20C17.6131 103 15.3239 102.052 13.636 100.364C11.9482 98.6761 11 96.387 11 94V76C11 73.6131 11.9482 71.3239 13.636 69.636C15.3239 67.9482 17.6131 67 20 67H38Z" fill="#1F2937"/>
<path fill-rule="evenodd" clip-rule="evenodd" d="M94 11C96.3869 11 98.6761 11.9482 100.364 13.636C102.052 15.3239 103 17.6131 103 20V38C103 40.387 102.052 42.6761 100.364 44.364C98.6761 46.0518 96.3869 47 94 47H76C73.6131 47 71.3239 46.0518 69.636 44.364C67.9482 42.6761 67 40.387 67 38V20C67 17.6131 67.9482 15.3239 69.636 13.636C71.3239 11.9482 73.6131 11 76 11H94Z" fill="#1F2937"/>
<path fill-rule="evenodd" clip-rule="evenodd" d="M38 11C40.3869 11 42.6761 11.9482 44.3639 13.636C46.0518 15.3239 47 17.6131 47 20V38C47 40.387 46.0518 42.6761 44.3639 44.364C42.6761 46.0518 40.3869 47 38 47H20C17.6131 47 15.3239 46.0518 13.636 44.364C11.9482 42.6761 11 40.387 11 38V20C11 17.6131 11.9482 15.3239 13.636 13.636C15.3239 11.9482 17.6131 11 20 11H38Z" fill="#1F2937"/>
<path d="M56 112C56 112.552 56.4477 113 57 113C57.5523 113 58 112.552 58 112H57H56ZM57.7071 0.292893C57.3166 -0.0976311 56.6834 -0.0976311 56.2929 0.292893L49.9289 6.65685C49.5384 7.04738 49.5384 7.68054 49.9289 8.07107C50.3195 8.46159 50.9526 8.46159 51.3431 8.07107L57 2.41421L62.6569 8.07107C63.0474 8.46159 63.6805 8.46159 64.0711 8.07107C64.4616 7.68054 64.4616 7.04738 64.0711 6.65685L57.7071 0.292893ZM57 112H58L58 1H57H56L56 112H57Z" fill="#1F2937"/>
<path d="M1 56C0.447715 56 0 56.4477 0 57C0 57.5523 0.447715 58 1 58V57V56ZM112.707 57.7071C113.098 57.3166 113.098 56.6834 112.707 56.2929L106.343 49.9289C105.953 49.5384 105.319 49.5384 104.929 49.9289C104.538 50.3195 104.538 50.9526 104.929 51.3431L110.586 57L104.929 62.6569C104.538 63.0474 104.538 63.6805 104.929 64.0711C105.319 64.4616 105.953 64.4616 106.343 64.0711L112.707 57.7071ZM1 57V58H112V57V56H1V57Z" fill="#1F2937"/>
</svg>
